# xmcd
#
# Track frame offsets:
#	150
#	40147
#	62852
#	93692
#	116747
#	135305
#	157505
#	174575
#	196810
#	217312
#	234027
#	255067
#	276157
#	296337
#	314912
#
# Disc length: 4469 seconds
#
# Revision: 1
# Processed by: cddbd v1.5.1PL0 Copyright (c) Steve Scherf et al.
# Submitted via: CDex 1.50Beta5
#
DISCID=d111730f
DTITLE=高中正義 - TRADE WIND〜SUMMER COLLECTION
DYEAR=1998
DGENRE=Fusion
TTITLE0=Tropic Birds
TTITLE1=Ready To Fly
TTITLE2=伊豆甘夏納豆売り
TTITLE3=Blue Lagoon
TTITLE4=Rainy Day Blue
TTITLE5=Early Bird
TTITLE6=Finger Dancin’
TTITLE7=Alone
TTITLE8=Fair Wind,A
TTITLE9=Saudade
TTITLE10=Jumping Take Off
TTITLE11=渚・モデラート
TTITLE12=Biscayne Blue
TTITLE13=Ballade 2U
TTITLE14=Victory Goal
EXTD=
EXTT0=
EXTT1=
EXTT2=
EXTT3=
EXTT4=
EXTT5=
EXTT6=
EXTT7=
EXTT8=
EXTT9=
EXTT10=
EXTT11=
EXTT12=
EXTT13=
EXTT14=
PLAYORDER=
